<svg width="40" height="41" viewBox="0 0 40 41" fill="none" xmlns="http://www.w3.org/2000/svg">
<path d="M30 9.73071H27.5V8.48071C27.5 8.14919 27.3683 7.83125 27.1339 7.59683C26.8995 7.36241 26.5815 7.23071 26.25 7.23071C25.9185 7.23071 25.6005 7.36241 25.3661 7.59683C25.1317 7.83125 25 8.14919 25 8.48071V9.73071H21.25V8.48071C21.25 8.14919 21.1183 7.83125 20.8839 7.59683C20.6495 7.36241 20.3315 7.23071 20 7.23071C19.6685 7.23071 19.3505 7.36241 19.1161 7.59683C18.8817 7.83125 18.75 8.14919 18.75 8.48071V9.73071H15V8.48071C15 8.14919 14.8683 7.83125 14.6339 7.59683C14.3995 7.36241 14.0815 7.23071 13.75 7.23071C13.4185 7.23071 13.1005 7.36241 12.8661 7.59683C12.6317 7.83125 12.5 8.14919 12.5 8.48071V9.73071H10C9.00544 9.73071 8.05161 10.1258 7.34835 10.8291C6.64509 11.5323 6.25 12.4862 6.25 13.4807V30.9807C6.25 31.9753 6.64509 32.9291 7.34835 33.6324C8.05161 34.3356 9.00544 34.7307 10 34.7307H30C30.9946 34.7307 31.9484 34.3356 32.6517 33.6324C33.3549 32.9291 33.75 31.9753 33.75 30.9807V13.4807C33.75 12.4862 33.3549 11.5323 32.6517 10.8291C31.9484 10.1258 30.9946 9.73071 30 9.73071ZM8.75 13.4807C8.75 13.1492 8.8817 12.8313 9.11612 12.5968C9.35054 12.3624 9.66848 12.2307 10 12.2307H12.5V13.4807C12.5 13.8122 12.6317 14.1302 12.8661 14.3646C13.1005 14.599 13.4185 14.7307 13.75 14.7307C14.0815 14.7307 14.3995 14.599 14.6339 14.3646C14.8683 14.1302 15 13.8122 15 13.4807V12.2307H18.75V13.4807C18.75 13.8122 18.8817 14.1302 19.1161 14.3646C19.3505 14.599 19.6685 14.7307 20 14.7307C20.3315 14.7307 20.6495 14.599 20.8839 14.3646C21.1183 14.1302 21.25 13.8122 21.25 13.4807V12.2307H25V13.4807C25 13.8122 25.1317 14.1302 25.3661 14.3646C25.6005 14.599 25.9185 14.7307 26.25 14.7307C26.5815 14.7307 26.8995 14.599 27.1339 14.3646C27.3683 14.1302 27.5 13.8122 27.5 13.4807V12.2307H30C30.3315 12.2307 30.6495 12.3624 30.8839 12.5968C31.1183 12.8313 31.25 13.1492 31.25 13.4807V17.2307H8.75V13.4807ZM31.25 30.9807C31.25 31.3122 31.1183 31.6302 30.8839 31.8646C30.6495 32.099 30.3315 32.2307 30 32.2307H10C9.66848 32.2307 9.35054 32.099 9.11612 31.8646C8.8817 31.6302 8.75 31.3122 8.75 30.9807V19.7307H31.25V30.9807Z" fill="#F5F5F5"/>
</svg>
