<svg width="40" height="40" viewBox="0 0 40 40" fill="none" xmlns="http://www.w3.org/2000/svg">
<rect opacity="0.1" width="40" height="40" rx="20" fill="#224A39"/>
<path d="M28.0001 12H12.0001C11.2044 12 10.4413 12.3161 9.87874 12.8787C9.31613 13.4413 9.00006 14.2044 9.00006 15V25C9.00006 25.7956 9.31613 26.5587 9.87874 27.1213C10.4413 27.6839 11.2044 28 12.0001 28H28.0001C28.7957 28 29.5588 27.6839 30.1214 27.1213C30.684 26.5587 31.0001 25.7956 31.0001 25V15C31.0001 14.2044 30.684 13.4413 30.1214 12.8787C29.5588 12.3161 28.7957 12 28.0001 12ZM29.0001 24.75L24.1001 20.35L29.0001 16.92V24.75ZM11.0001 16.92L15.9001 20.35L11.0001 24.75V16.92ZM17.5801 21.53L19.4301 22.82C19.5975 22.9361 19.7963 22.9984 20.0001 22.9984C20.2038 22.9984 20.4027 22.9361 20.5701 22.82L22.4201 21.53L27.4201 26H12.6001L17.5801 21.53ZM12.0001 14H28.0001C28.1858 14.0015 28.3674 14.0547 28.5246 14.1536C28.6818 14.2525 28.8083 14.3932 28.8901 14.56L20.0001 20.78L11.1101 14.56C11.1918 14.3932 11.3183 14.2525 11.4755 14.1536C11.6327 14.0547 11.8143 14.0015 12.0001 14Z" fill="#224A39"/>
</svg>
