<svg width="40" height="40" viewBox="0 0 40 40" fill="none" xmlns="http://www.w3.org/2000/svg">
<rect opacity="0.1" width="40" height="40" rx="20" fill="#224A39"/>
<path d="M27.44 20.9999C27.22 20.9999 26.99 20.9299 26.77 20.8799C26.3245 20.7817 25.8867 20.6514 25.46 20.4899C24.9961 20.3211 24.4861 20.3299 24.0283 20.5145C23.5705 20.6991 23.1971 21.0465 22.98 21.4899L22.76 21.9399C21.786 21.398 20.891 20.7251 20.1 19.9399C19.3148 19.1489 18.6418 18.2539 18.1 17.2799L18.52 16.9999C18.9634 16.7828 19.3108 16.4094 19.4954 15.9516C19.68 15.4937 19.6888 14.9838 19.52 14.5199C19.3612 14.0923 19.2309 13.6547 19.13 13.2099C19.08 12.9899 19.04 12.7599 19.01 12.5299C18.8886 11.8255 18.5196 11.1876 17.9696 10.7311C17.4196 10.2746 16.7247 10.0295 16.01 10.0399H13.01C12.579 10.0358 12.1522 10.1247 11.7587 10.3004C11.3652 10.4761 11.0141 10.7346 10.7294 11.0582C10.4447 11.3817 10.2331 11.7629 10.109 12.1756C9.98484 12.5883 9.95107 13.0229 10.01 13.4499C10.5427 17.6392 12.456 21.5317 15.4476 24.5125C18.4393 27.4933 22.3387 29.3924 26.53 29.9099H26.91C27.6474 29.9109 28.3594 29.6404 28.91 29.1499C29.2264 28.8669 29.4791 28.52 29.6515 28.1322C29.8238 27.7443 29.912 27.3243 29.91 26.8999V23.8999C29.8977 23.2053 29.6448 22.5364 29.1943 22.0075C28.7439 21.4786 28.1238 21.1225 27.44 20.9999ZM27.94 26.9999C27.9398 27.1419 27.9094 27.2822 27.8508 27.4115C27.7922 27.5408 27.7067 27.6562 27.6 27.7499C27.4883 27.8463 27.3576 27.9184 27.2164 27.9615C27.0752 28.0045 26.9265 28.0176 26.78 27.9999C23.0349 27.5197 19.5562 25.8064 16.8927 23.1302C14.2292 20.454 12.5324 16.9672 12.07 13.2199C12.0541 13.0734 12.068 12.9252 12.111 12.7843C12.154 12.6433 12.2251 12.5126 12.32 12.3999C12.4137 12.2932 12.5291 12.2077 12.6584 12.1491C12.7877 12.0905 12.928 12.06 13.07 12.0599H16.07C16.3025 12.0547 16.5296 12.1307 16.7121 12.2749C16.8947 12.4191 17.0212 12.6224 17.07 12.8499C17.11 13.1232 17.16 13.3932 17.22 13.6599C17.3355 14.187 17.4893 14.705 17.68 15.2099L16.28 15.8599C16.1603 15.9148 16.0526 15.9928 15.9632 16.0895C15.8737 16.1861 15.8042 16.2995 15.7587 16.4231C15.7131 16.5466 15.6925 16.678 15.6978 16.8096C15.7032 16.9412 15.7345 17.0704 15.79 17.1899C17.2292 20.2726 19.7072 22.7507 22.79 24.1899C23.0335 24.2899 23.3065 24.2899 23.55 24.1899C23.6747 24.1453 23.7893 24.0763 23.8872 23.9871C23.985 23.8978 24.0642 23.79 24.12 23.6699L24.74 22.2699C25.257 22.4547 25.7846 22.6084 26.32 22.7299C26.5867 22.7899 26.8567 22.8399 27.13 22.8799C27.3574 22.9287 27.5607 23.0552 27.7049 23.2377C27.8491 23.4202 27.9252 23.6473 27.92 23.8799L27.94 26.9999Z" fill="#224A39"/>
</svg>
