<svg width="40" height="41" viewBox="0 0 40 41" fill="none" xmlns="http://www.w3.org/2000/svg">
<g clip-path="url(#clip0_70_708)">
<path d="M36.2361 22.8242C33.9951 22.0122 31.5091 22.1927 29.4072 23.3181L25.9807 24.8595C25.7038 23.2814 24.4918 22.0955 22.9958 22.0499C22.987 22.0497 17.8582 21.9918 17.8582 21.9918C13.7531 20.8658 11.0857 22.3127 9.56409 23.7387C9.25289 24.0303 8.97922 24.3305 8.73836 24.6267C8.32776 24.1845 7.60298 24.0664 7.07443 24.357L2.41879 26.9161C1.81494 27.2481 1.55221 27.9764 1.80545 28.6165L6.35537 40.1184C6.65434 40.8741 7.57315 41.2081 8.29007 40.814L12.9457 38.2549C13.3821 38.015 13.639 37.568 13.6531 37.097H20.6017C21.7351 37.097 22.8541 36.7993 23.8377 36.236C23.8377 36.236 36.9061 28.7396 36.9798 28.6726C38.8099 27.0077 38.8663 23.7773 36.2361 22.8242C37.2853 23.2044 33.9951 22.0122 36.2361 22.8242ZM8.33169 37.6687L4.79631 28.7315L7.03255 27.5023L10.5679 36.4395L8.33169 37.6687ZM35.2311 26.558L22.4743 33.8634C21.9049 34.1894 21.2573 34.3617 20.6014 34.3617H12.6914L10.0355 27.6477C10.2631 27.1841 10.7112 26.4149 11.439 25.7329C12.9295 24.3362 14.8941 23.9787 17.2786 24.6705C17.3978 24.7052 17.5213 24.7234 17.6454 24.7248L22.9175 24.7841C23.0521 24.7958 23.3006 25.095 23.3006 25.5487C23.3006 26.0157 23.044 26.3134 22.9098 26.3134H17.7297V29.0487H22.9098C23.5515 29.0487 24.1487 28.8317 24.6458 28.4599L30.5774 25.7917C30.6089 25.7775 30.6396 25.7623 30.6699 25.7458C32.0928 24.9721 33.781 24.8443 35.3014 25.3952C35.903 25.6134 35.4684 26.3171 35.2311 26.558ZM26.9995 20.6887C21.5664 20.6887 17.1462 16.2681 17.1462 10.8346C17.1462 5.40123 21.5663 0.980713 26.9995 0.980713C32.4326 0.980713 36.8527 5.40123 36.8527 10.8346C36.8527 16.2681 32.4325 20.6887 26.9995 20.6887ZM26.9995 3.71593C23.077 3.71593 19.8859 6.90935 19.8859 10.8346C19.8859 14.7599 23.0771 17.9534 26.9995 17.9534C30.922 17.9534 34.1131 14.7599 34.1131 10.8346C34.1131 6.90943 30.9219 3.71593 26.9995 3.71593Z" fill="#F5F5F5"/>
<path d="M27.6358 9.71986C26.5464 9.2725 26.4622 9.08028 26.4622 8.85746C26.4622 8.71515 26.5328 8.3843 27.1871 8.3843C27.7857 8.3843 28.5315 8.72028 29.0575 9.06652L29.7892 7.14857C29.2668 6.81601 28.6319 6.53028 28.0383 6.43892V5.19165H26.0874V6.56028C24.9284 6.92558 24.2142 7.85208 24.2142 9.00541C24.2142 10.5329 25.4363 11.2149 26.6299 11.6798C27.5836 12.0634 27.6635 12.3571 27.6635 12.6023C27.6635 12.9795 27.3159 13.2232 26.778 13.2232C26.0765 13.2232 25.2609 12.8186 24.6899 12.3758L23.9858 14.3246C24.5681 14.776 25.2421 15.074 26.0005 15.1852V16.4775H27.9635V15.0707C29.1587 14.6901 29.9237 13.6999 29.9237 12.516C29.9237 10.8587 28.7011 10.1512 27.6358 9.71986Z" fill="#F5F5F5"/>
</g>
<defs>
<clipPath id="clip0_70_708">
<rect width="40" height="40" fill="white" transform="translate(0 0.980713)"/>
</clipPath>
</defs>
</svg>
