<svg width="40" height="41" viewBox="0 0 40 41" fill="none" xmlns="http://www.w3.org/2000/svg">
<path d="M26.1757 11.8556C26.1757 12.1994 26.1523 12.5431 26.1093 12.883C26.1289 12.7463 26.1484 12.6056 26.164 12.4689C26.0703 13.1486 25.8906 13.8088 25.6289 14.4416C25.6796 14.3166 25.7343 14.1916 25.7851 14.0666C25.5234 14.6838 25.1875 15.2619 24.7773 15.7931C24.8593 15.6877 24.9414 15.5822 25.0234 15.4767C24.6171 16.0002 24.1445 16.4728 23.621 16.8791C23.7265 16.797 23.832 16.715 23.9375 16.633C23.4062 17.0392 22.8281 17.3791 22.2109 17.6408C22.3359 17.59 22.4609 17.5353 22.5859 17.4845C21.9531 17.7463 21.2929 17.926 20.6132 18.0197C20.75 18.0002 20.8906 17.9806 21.0273 17.965C20.3437 18.0549 19.6562 18.0549 18.9726 17.965C19.1093 17.9845 19.25 18.0041 19.3867 18.0197C18.707 17.926 18.0468 17.7463 17.414 17.4845C17.539 17.5353 17.664 17.59 17.789 17.6408C17.1718 17.3791 16.5937 17.0431 16.0624 16.633C16.1679 16.715 16.2734 16.797 16.3789 16.8791C15.8554 16.4728 15.3828 16.0002 14.9765 15.4767C15.0585 15.5822 15.1406 15.6877 15.2226 15.7931C14.8164 15.2619 14.4765 14.6838 14.2148 14.0666C14.2656 14.1916 14.3203 14.3166 14.371 14.4416C14.1093 13.8088 13.9296 13.1486 13.8359 12.4689C13.8554 12.6056 13.8749 12.7463 13.8906 12.883C13.8007 12.1994 13.8007 11.5119 13.8906 10.8283C13.871 10.965 13.8515 11.1056 13.8359 11.2424C13.9296 10.5627 14.1093 9.90252 14.371 9.26971C14.3203 9.39471 14.2656 9.51971 14.2148 9.64471C14.4765 9.02752 14.8124 8.44939 15.2226 7.91814C15.1406 8.02361 15.0585 8.12908 14.9765 8.23455C15.3828 7.71111 15.8554 7.23846 16.3789 6.83221C16.2734 6.91424 16.1679 6.99627 16.0624 7.0783C16.5937 6.67205 17.1718 6.33221 17.789 6.07049C17.664 6.12127 17.539 6.17596 17.414 6.22674C18.0468 5.96502 18.707 5.78533 19.3867 5.69158C19.25 5.71111 19.1093 5.73064 18.9726 5.74627C19.6562 5.65643 20.3437 5.65643 21.0273 5.74627C20.8906 5.72674 20.75 5.70721 20.6132 5.69158C21.2929 5.78533 21.9531 5.96502 22.5859 6.22674C22.4609 6.17596 22.3359 6.12127 22.2109 6.07049C22.8281 6.33221 23.4062 6.66814 23.9375 7.0783C23.832 6.99627 23.7265 6.91424 23.621 6.83221C24.1445 7.23846 24.6171 7.71111 25.0234 8.23455C24.9414 8.12908 24.8593 8.02361 24.7773 7.91814C25.1836 8.44939 25.5234 9.02752 25.7851 9.64471C25.7343 9.51971 25.6796 9.39471 25.6289 9.26971C25.8906 9.90252 26.0703 10.5627 26.164 11.2424C26.1445 11.1056 26.125 10.965 26.1093 10.8283C26.1523 11.1681 26.1718 11.5119 26.1757 11.8556C26.1796 12.672 26.8906 13.4572 27.7382 13.4181C28.582 13.3791 29.3046 12.7306 29.3007 11.8556C29.2929 9.98455 28.7304 8.07049 27.6289 6.54705C27.332 6.13689 27.0156 5.73455 26.664 5.37127C26.3085 5.00408 25.9179 4.68768 25.5117 4.37908C24.7734 3.81658 23.9492 3.40252 23.0742 3.08221C19.5468 1.78924 15.2929 2.94158 12.9062 5.84783C12.5781 6.24627 12.2656 6.66033 11.9999 7.10564C11.7343 7.54705 11.5273 8.0158 11.3359 8.49236C10.9765 9.37518 10.7929 10.3127 10.7187 11.2619C10.5742 13.1213 11.0585 15.0627 12.0273 16.6564C12.9609 18.1955 14.371 19.5158 16.0195 20.2619C16.5039 20.4806 16.9999 20.6838 17.5156 20.8283C18.0273 20.9689 18.5468 21.047 19.0742 21.1095C20.0351 21.2228 21.0156 21.1447 21.9648 20.9533C25.5703 20.2189 28.5898 17.1135 29.1484 13.4689C29.2304 12.9377 29.2929 12.4064 29.2929 11.8674C29.2968 11.051 28.5703 10.2658 27.7304 10.3049C26.8867 10.3322 26.1757 10.9806 26.1757 11.8556ZM31.3593 36.2814C30.5937 36.2814 29.8281 36.2814 29.0625 36.2814C27.2382 36.2814 25.4179 36.2814 23.5937 36.2814C21.3984 36.2814 19.2031 36.2814 17.0039 36.2814C15.1093 36.2814 13.2148 36.2814 11.3164 36.2814C10.4296 36.2814 9.54291 36.2892 8.65619 36.2814C8.55854 36.2814 8.46088 36.2736 8.36713 36.2619C8.50385 36.2814 8.64447 36.301 8.78119 36.3166C8.62494 36.2931 8.4765 36.2502 8.33197 36.1916C8.45697 36.2424 8.58197 36.2971 8.70697 36.3478C8.55072 36.2814 8.40619 36.1955 8.26947 36.09C8.37494 36.1721 8.48041 36.2541 8.58588 36.3361C8.46869 36.2385 8.35932 36.133 8.26557 36.0158C8.3476 36.1213 8.42963 36.2267 8.51166 36.3322C8.40619 36.1955 8.32416 36.051 8.25385 35.8947C8.30463 36.0197 8.35932 36.1447 8.4101 36.2697C8.3515 36.1252 8.31244 35.9728 8.2851 35.8205C8.30463 35.9572 8.32416 36.0978 8.33979 36.2346C8.27729 35.7619 8.32025 35.2619 8.32025 34.7853C8.32025 34.2267 8.32025 33.672 8.32025 33.1135C8.32025 32.6955 8.34369 32.2814 8.39838 31.8674C8.37885 32.0041 8.35932 32.1447 8.34369 32.2814C8.45307 31.4806 8.664 30.6955 8.98041 29.9494C8.92963 30.0744 8.87494 30.1994 8.82416 30.3244C9.12885 29.6135 9.51947 28.9455 9.99213 28.3322C9.9101 28.4377 9.82807 28.5431 9.74604 28.6486C10.2187 28.0431 10.7617 27.4963 11.371 27.0236C11.2656 27.1056 11.1601 27.1877 11.0546 27.2697C11.6679 26.797 12.3359 26.4064 13.0468 26.1017C12.9218 26.1525 12.7968 26.2072 12.6718 26.258C13.4179 25.9455 14.1992 25.7306 15.0039 25.6213C14.8671 25.6408 14.7265 25.6603 14.5898 25.676C15.1679 25.6017 15.7421 25.5978 16.3242 25.5978C17.039 25.5978 17.7539 25.5978 18.4687 25.5978C20.1367 25.5978 21.8046 25.5978 23.4726 25.5978C24.1171 25.5978 24.7578 25.5939 25.4023 25.676C25.2656 25.6564 25.125 25.6369 24.9882 25.6213C25.789 25.7306 26.5742 25.9416 27.3203 26.258C27.1953 26.2072 27.0703 26.1525 26.9453 26.1017C27.6562 26.4064 28.3242 26.797 28.9375 27.2697C28.832 27.1877 28.7265 27.1056 28.6211 27.0236C29.2265 27.4963 29.7734 28.0392 30.2461 28.6486C30.164 28.5431 30.082 28.4377 30 28.3322C30.4726 28.9455 30.8632 29.6135 31.1679 30.3244C31.1172 30.1994 31.0625 30.0744 31.0117 29.9494C31.3242 30.6955 31.539 31.4767 31.6484 32.2814C31.6289 32.1447 31.6093 32.0041 31.5937 31.8674C31.6679 32.4572 31.6718 33.0431 31.6718 33.6369C31.6718 34.2814 31.6718 34.926 31.6718 35.5705C31.6718 35.7931 31.6796 36.0158 31.6523 36.2346C31.6718 36.0978 31.6914 35.9572 31.707 35.8205C31.6836 35.9767 31.6406 36.1252 31.582 36.2697C31.6328 36.1447 31.6875 36.0197 31.7382 35.8947C31.6718 36.051 31.5859 36.1955 31.4804 36.3322C31.5625 36.2267 31.6445 36.1213 31.7265 36.0158C31.6289 36.133 31.5234 36.2424 31.4062 36.3361C31.5117 36.2541 31.6171 36.1721 31.7226 36.09C31.5859 36.1955 31.4414 36.2775 31.2851 36.3478C31.4101 36.2971 31.5351 36.2424 31.6601 36.1916C31.5156 36.2502 31.3632 36.2892 31.2109 36.3166C31.3476 36.2971 31.4882 36.2775 31.625 36.2619C31.539 36.2736 31.4492 36.2775 31.3593 36.2814C30.957 36.2853 30.5429 36.4533 30.2539 36.7385C29.9843 37.008 29.7773 37.4533 29.7968 37.8439C29.8359 38.6799 30.4843 39.4181 31.3593 39.4064C32.8789 39.383 34.2148 38.3908 34.6601 36.9338C34.8359 36.3556 34.7968 35.7346 34.7968 35.1408C34.7968 33.7814 34.8398 32.4338 34.6054 31.0861C34.2617 29.1135 33.2695 27.258 31.9101 25.801C30.5507 24.3439 28.7226 23.2736 26.789 22.7971C25.6796 22.5236 24.5625 22.4806 23.4296 22.4806C22.2656 22.4806 21.1054 22.4806 19.9414 22.4806C18.7929 22.4806 17.6484 22.4806 16.4999 22.4806C15.3398 22.4806 14.1874 22.5353 13.0585 22.8361C11.1406 23.3439 9.33588 24.426 8.00385 25.8947C6.6601 27.3752 5.68744 29.2345 5.37103 31.2189C5.16009 32.551 5.20306 33.8869 5.20306 35.2306C5.20306 35.8478 5.16791 36.4924 5.39056 37.0822C5.67963 37.84 6.14056 38.4377 6.81635 38.8869C7.34369 39.2346 8.01166 39.4025 8.63666 39.4103C8.94135 39.4142 9.24604 39.4103 9.55072 39.4103C10.332 39.4103 11.1093 39.4103 11.8906 39.4103C12.9999 39.4103 14.1054 39.4103 15.2148 39.4103C16.5039 39.4103 17.7929 39.4103 19.082 39.4103C20.4062 39.4103 21.7265 39.4103 23.0507 39.4103C24.2617 39.4103 25.4687 39.4103 26.6796 39.4103C27.6289 39.4103 28.5781 39.4103 29.5234 39.4103C30.0664 39.4103 30.6093 39.4103 31.1523 39.4103C31.2226 39.4103 31.2929 39.4103 31.3632 39.4103C32.1797 39.4103 32.9648 38.6916 32.9257 37.8478C32.8867 36.9963 32.2382 36.2814 31.3593 36.2814Z" fill="#F5F5F5"/>
</svg>
