<svg width="40" height="41" viewBox="0 0 40 41" fill="none" xmlns="http://www.w3.org/2000/svg">
<path d="M33.3334 4.31396H16.6667C15.3407 4.31396 14.0689 4.84075 13.1312 5.77843C12.1935 6.71611 11.6667 7.98788 11.6667 9.31396V12.6473H6.66675C5.34067 12.6473 4.0689 13.1741 3.13121 14.1118C2.19353 15.0494 1.66675 16.3212 1.66675 17.6473V27.6473C1.66621 28.6817 1.98651 29.6908 2.58351 30.5356C3.18051 31.3804 4.02482 32.0192 5.00008 32.364V35.9806C5.00059 36.276 5.07956 36.5658 5.22892 36.8206C5.37827 37.0754 5.59264 37.2859 5.85008 37.4306C6.09917 37.5718 6.38043 37.6464 6.66675 37.6473C6.96589 37.6472 7.25949 37.5666 7.51675 37.414L15.4667 32.6473H23.3334C24.6595 32.6473 25.9313 32.1205 26.8689 31.1828C27.8066 30.2452 28.3334 28.9734 28.3334 27.6473V26.5973L32.4834 29.0806C32.7407 29.2333 33.0343 29.3139 33.3334 29.314C33.6197 29.3131 33.901 29.2385 34.1501 29.0973C34.4075 28.9526 34.6219 28.7421 34.7712 28.4873C34.9206 28.2325 34.9996 27.9426 35.0001 27.6473V24.0306C35.9753 23.6858 36.8196 23.047 37.4166 22.2023C38.0137 21.3575 38.334 20.3484 38.3334 19.314V9.31396C38.3334 7.98788 37.8066 6.71611 36.8689 5.77843C35.9313 4.84075 34.6595 4.31396 33.3334 4.31396ZM25.0001 27.6473C25.0001 28.0893 24.8245 28.5133 24.5119 28.8258C24.1994 29.1384 23.7754 29.314 23.3334 29.314H15.0001C14.7009 29.3141 14.4073 29.3946 14.1501 29.5473L8.33342 33.0306V30.9806C8.33342 30.5386 8.15782 30.1147 7.84526 29.8021C7.5327 29.4896 7.10878 29.314 6.66675 29.314C6.22472 29.314 5.8008 29.1384 5.48824 28.8258C5.17568 28.5133 5.00008 28.0893 5.00008 27.6473V17.6473C5.00008 17.2053 5.17568 16.7813 5.48824 16.4688C5.8008 16.1562 6.22472 15.9806 6.66675 15.9806H11.6667V19.314C11.6667 20.64 12.1935 21.9118 13.1312 22.8495C14.0689 23.7872 15.3407 24.314 16.6667 24.314H24.5334L25.0001 24.5973V27.6473ZM35.0001 19.314C35.0001 19.756 34.8245 20.1799 34.5119 20.4925C34.1994 20.805 33.7754 20.9806 33.3334 20.9806C32.8914 20.9806 32.4675 21.1562 32.1549 21.4688C31.8423 21.7813 31.6667 22.2053 31.6667 22.6473V24.6973L25.8501 21.214C25.5928 21.0613 25.2992 20.9807 25.0001 20.9806H16.6667C16.2247 20.9806 15.8008 20.805 15.4882 20.4925C15.1757 20.1799 15.0001 19.756 15.0001 19.314V9.31396C15.0001 8.87194 15.1757 8.44801 15.4882 8.13545C15.8008 7.82289 16.2247 7.6473 16.6667 7.6473H33.3334C33.7754 7.6473 34.1994 7.82289 34.5119 8.13545C34.8245 8.44801 35.0001 8.87194 35.0001 9.31396V19.314Z" fill="#F5F5F5"/>
</svg>
