<svg width="40" height="41" viewBox="0 0 40 41" fill="none" xmlns="http://www.w3.org/2000/svg">
<g clip-path="url(#clip0_70_725)">
<path d="M23.8833 34.3139H23.5333C22.8278 34.2439 22.1631 33.9509 21.6356 33.4773C21.1081 33.0038 20.7453 32.3744 20.5999 31.6806L16.1333 10.9806L11.5333 21.6473C11.4031 21.9454 11.1886 22.1989 10.9162 22.3766C10.6437 22.5543 10.3252 22.6484 9.99992 22.6473H4.99992C4.55789 22.6473 4.13397 22.4717 3.82141 22.1591C3.50885 21.8466 3.33325 21.4226 3.33325 20.9806C3.33325 20.5386 3.50885 20.1147 3.82141 19.8021C4.13397 19.4895 4.55789 19.3139 4.99992 19.3139H8.89992L13.0833 9.66393C13.3649 9.01637 13.8448 8.47497 14.454 8.11779C15.0631 7.7606 15.77 7.6061 16.4726 7.67654C17.1752 7.74699 17.8373 8.03875 18.3634 8.50976C18.8895 8.98077 19.2525 9.60669 19.3999 10.2973L23.8666 30.9806L28.4666 20.3473C28.5916 20.0429 28.8039 19.7824 29.0768 19.5985C29.3497 19.4146 29.6709 19.3156 29.9999 19.3139H34.9999C35.4419 19.3139 35.8659 19.4895 36.1784 19.8021C36.491 20.1147 36.6666 20.5386 36.6666 20.9806C36.6666 21.4226 36.491 21.8466 36.1784 22.1591C35.8659 22.4717 35.4419 22.6473 34.9999 22.6473H31.0999L26.9166 32.2973C26.6611 32.8915 26.2383 33.3985 25.6997 33.7566C25.1611 34.1147 24.53 34.3083 23.8833 34.3139Z" fill="#F5F5F5"/>
</g>
<defs>
<clipPath id="clip0_70_725">
<rect width="40" height="40" fill="white" transform="translate(0 0.980713)"/>
</clipPath>
</defs>
</svg>
