<svg width="40" height="40" viewBox="0 0 40 40" fill="none" xmlns="http://www.w3.org/2000/svg">
<path d="M33.3332 13.3333L23.3332 4.56668C22.4165 3.74675 21.2298 3.29346 19.9999 3.29346C18.77 3.29346 17.5833 3.74675 16.6666 4.56668L6.66658 13.3333C6.13719 13.8068 5.71475 14.3876 5.42737 15.0371C5.13999 15.6866 4.99427 16.3898 4.99991 17.1V31.6667C4.99991 32.9928 5.5267 34.2645 6.46438 35.2022C7.40206 36.1399 8.67383 36.6667 9.99991 36.6667H29.9999C31.326 36.6667 32.5978 36.1399 33.5354 35.2022C34.4731 34.2645 34.9999 32.9928 34.9999 31.6667V17.0833C35.0032 16.3759 34.8563 15.6759 34.569 15.0295C34.2817 14.383 33.8605 13.8049 33.3332 13.3333ZM23.3332 33.3333H16.6666V25C16.6666 24.558 16.8422 24.1341 17.1547 23.8215C17.4673 23.5089 17.8912 23.3333 18.3332 23.3333H21.6666C22.1086 23.3333 22.5325 23.5089 22.8451 23.8215C23.1576 24.1341 23.3332 24.558 23.3332 25V33.3333ZM31.6666 31.6667C31.6666 32.1087 31.491 32.5326 31.1784 32.8452C30.8659 33.1577 30.4419 33.3333 29.9999 33.3333H26.6666V25C26.6666 23.6739 26.1398 22.4022 25.2021 21.4645C24.2644 20.5268 22.9927 20 21.6666 20H18.3332C17.0072 20 15.7354 20.5268 14.7977 21.4645C13.86 22.4022 13.3332 23.6739 13.3332 25V33.3333H9.99991C9.55789 33.3333 9.13396 33.1577 8.8214 32.8452C8.50884 32.5326 8.33325 32.1087 8.33325 31.6667V17.0833C8.33355 16.8467 8.38424 16.6128 8.48194 16.3973C8.57965 16.1818 8.72213 15.9895 8.89991 15.8333L18.8999 7.08334C19.2041 6.81614 19.5951 6.66879 19.9999 6.66879C20.4048 6.66879 20.7958 6.81614 21.0999 7.08334L31.0999 15.8333C31.2777 15.9895 31.4202 16.1818 31.5179 16.3973C31.6156 16.6128 31.6663 16.8467 31.6666 17.0833V31.6667Z" fill="#224A39"/>
</svg>
