<svg width="24" height="24" viewBox="0 0 24 24" fill="none" xmlns="http://www.w3.org/2000/svg">
<path d="M12.0012 9.35986C11.6544 9.35986 11.3109 9.42818 10.9905 9.56091C10.67 9.69365 10.3789 9.8882 10.1336 10.1335C9.88834 10.3787 9.69379 10.6699 9.56106 10.9903C9.42832 11.3108 9.36001 11.6542 9.36001 12.0011C9.36001 12.3479 9.42832 12.6914 9.56106 13.0118C9.69379 13.3323 9.88834 13.6234 10.1336 13.8687C10.3789 14.1139 10.67 14.3085 10.9905 14.4412C11.3109 14.5739 11.6544 14.6423 12.0012 14.6423C12.7017 14.6421 13.3734 14.3637 13.8686 13.8683C14.3638 13.3728 14.642 12.701 14.6418 12.0005C14.6416 11.3 14.3632 10.6282 13.8678 10.133C13.3724 9.63782 12.7005 9.3597 12 9.35986H12.0012ZM3.60121 9.35986C3.25436 9.35986 2.91091 9.42818 2.59046 9.56091C2.27002 9.69365 1.97885 9.8882 1.7336 10.1335C1.48834 10.3787 1.29379 10.6699 1.16106 10.9903C1.02832 11.3108 0.960007 11.6542 0.960007 12.0011C0.960007 12.3479 1.02832 12.6914 1.16106 13.0118C1.29379 13.3323 1.48834 13.6234 1.7336 13.8687C1.97885 14.1139 2.27002 14.3085 2.59046 14.4412C2.91091 14.5739 3.25436 14.6423 3.60121 14.6423C4.3017 14.6421 4.97343 14.3637 5.46864 13.8683C5.96385 13.3728 6.24197 12.701 6.24181 12.0005C6.24165 11.3 5.96323 10.6282 5.46779 10.133C4.97236 9.63782 4.3005 9.3597 3.60001 9.35986H3.60121ZM20.4012 9.35986C20.0544 9.35986 19.7109 9.42818 19.3905 9.56091C19.07 9.69365 18.7789 9.8882 18.5336 10.1335C18.2883 10.3787 18.0938 10.6699 17.9611 10.9903C17.8283 11.3108 17.76 11.6542 17.76 12.0011C17.76 12.3479 17.8283 12.6914 17.9611 13.0118C18.0938 13.3323 18.2883 13.6234 18.5336 13.8687C18.7789 14.1139 19.07 14.3085 19.3905 14.4412C19.7109 14.5739 20.0544 14.6423 20.4012 14.6423C21.1017 14.6421 21.7734 14.3637 22.2686 13.8683C22.7638 13.3728 23.042 12.701 23.0418 12.0005C23.0416 11.3 22.7632 10.6282 22.2678 10.133C21.7724 9.63782 21.1005 9.3597 20.4 9.35986H20.4012Z" fill="#A098AE"/>
</svg>
