<svg width="32" height="32" viewBox="0 0 32 32" fill="none" xmlns="http://www.w3.org/2000/svg">
<path d="M27.6 25.8001L22 20.2001C23.3 18.5001 24.1 16.4001 24.1 14.1001C24.1 8.6001 19.6 4.1001 14.1 4.1001C8.6 4.1001 4 8.6001 4 14.1001C4 19.6001 8.5 24.1001 14 24.1001C16.3 24.1001 18.5 23.3001 20.2 21.9001L25.8 27.5001C26 27.7001 26.4 27.9001 26.7 27.9001C27 27.9001 27.3 27.8001 27.6 27.5001C28.1 27.1001 28.1 26.3001 27.6 25.8001ZM6.5 14.1001C6.5 10.0001 9.9 6.6001 14 6.6001C18.1 6.6001 21.5 10.0001 21.5 14.1001C21.5 18.2001 18.1 21.6001 14 21.6001C9.9 21.6001 6.5 18.3001 6.5 14.1001Z" fill="#643923"/>
</svg>
