<svg width="40" height="41" viewBox="0 0 40 41" fill="none" xmlns="http://www.w3.org/2000/svg">
<g clip-path="url(#clip0_70_699)">
<path fill-rule="evenodd" clip-rule="evenodd" d="M5 35.9807C5 38.052 6.67875 39.7307 8.75 39.7307H31.25C33.3212 39.7307 35 38.052 35 35.9807C35 33.0632 35 28.2932 35 25.567C35 23.7545 33.7038 22.202 31.9213 21.8782C29.2788 21.397 24.7225 20.5682 22.145 20.1007C20.7263 19.842 19.2737 19.842 17.855 20.1007C15.2775 20.5682 10.7212 21.397 8.07875 21.8782C6.29625 22.202 5 23.7545 5 25.567V35.9807ZM22.885 22.7757L24.7612 29.9095C25.0075 30.8457 24.6775 31.8395 23.92 32.4445C23.28 32.9545 22.2713 33.7595 21.5713 34.3195C20.6525 35.052 19.3475 35.052 18.4287 34.3195C17.7287 33.7595 16.72 32.9545 16.08 32.4445C15.3225 31.8395 14.9925 30.8457 15.2388 29.9095L17.115 22.7757L8.52625 24.337C7.9325 24.4457 7.5 24.9632 7.5 25.567V35.9807C7.5 36.6707 8.06 37.2307 8.75 37.2307C13.98 37.2307 26.02 37.2307 31.25 37.2307C31.94 37.2307 32.5 36.6707 32.5 35.9807C32.5 33.0632 32.5 28.2932 32.5 25.567C32.5 24.9632 32.0675 24.4457 31.4738 24.337L22.885 22.7757ZM20.2038 22.4095C20.0675 22.4057 19.9325 22.4057 19.7962 22.4095L17.6663 30.512L19.9887 32.3645C19.995 32.3707 20.005 32.3707 20.0113 32.3645L22.3337 30.512L20.2038 22.4095ZM20 2.23071C15.5163 2.23071 11.875 5.87196 11.875 10.3557C11.875 14.8395 15.5163 18.4807 20 18.4807C24.4837 18.4807 28.125 14.8395 28.125 10.3557C28.125 5.87196 24.4837 2.23071 20 2.23071ZM20 4.73071C23.105 4.73071 25.625 7.25071 25.625 10.3557C25.625 13.4607 23.105 15.9807 20 15.9807C16.895 15.9807 14.375 13.4607 14.375 10.3557C14.375 7.25071 16.895 4.73071 20 4.73071Z" fill="#F5F5F5"/>
</g>
<defs>
<clipPath id="clip0_70_699">
<rect width="40" height="40" fill="white" transform="translate(0 0.980713)"/>
</clipPath>
</defs>
</svg>
